<svg width="1624" height="612" viewBox="0 0 1624 612" fill="none" xmlns="http://www.w3.org/2000/svg">
  <g filter="url(#filter0_dddi_0_1)">
    <rect x="1108" y="165" width="512" height="120" rx="39" fill="#27272A" />
    <rect x="1108.5" y="165.5" width="511" height="119" rx="38.5" stroke="url(#paint0_linear_0_1)"
      stroke-opacity="0.26" />
  </g>
  <path
    d="M1273.07 240V210.909H1283.44C1285.71 210.909 1287.58 211.321 1289.07 212.145C1290.56 212.969 1291.67 214.096 1292.41 215.526C1293.15 216.946 1293.52 218.546 1293.52 220.327C1293.52 222.116 1293.14 223.726 1292.39 225.156C1291.65 226.577 1290.54 227.704 1289.04 228.537C1287.55 229.361 1285.68 229.773 1283.43 229.773H1276.3V226.051H1283.03C1284.46 226.051 1285.62 225.805 1286.51 225.312C1287.4 224.811 1288.06 224.129 1288.47 223.267C1288.89 222.405 1289.1 221.425 1289.1 220.327C1289.1 219.228 1288.89 218.253 1288.47 217.401C1288.06 216.548 1287.4 215.881 1286.5 215.398C1285.61 214.915 1284.43 214.673 1282.98 214.673H1277.46V240H1273.07ZM1298.32 240V218.182H1302.43V221.648H1302.65C1303.05 220.473 1303.75 219.55 1304.75 218.878C1305.77 218.196 1306.91 217.855 1308.19 217.855C1308.46 217.855 1308.77 217.865 1309.13 217.884C1309.5 217.902 1309.79 217.926 1310 217.955V222.017C1309.83 221.97 1309.52 221.918 1309.09 221.861C1308.65 221.795 1308.22 221.761 1307.78 221.761C1306.78 221.761 1305.88 221.974 1305.1 222.401C1304.32 222.817 1303.7 223.4 1303.25 224.148C1302.79 224.886 1302.57 225.729 1302.57 226.676V240H1298.32ZM1322.29 240.44C1320.14 240.44 1318.29 239.981 1316.74 239.062C1315.2 238.134 1314 236.832 1313.16 235.156C1312.33 233.471 1311.91 231.496 1311.91 229.233C1311.91 226.998 1312.33 225.028 1313.16 223.324C1314 221.619 1315.18 220.289 1316.68 219.332C1318.2 218.376 1319.97 217.898 1322 217.898C1323.23 217.898 1324.42 218.101 1325.57 218.509C1326.73 218.916 1327.77 219.555 1328.69 220.426C1329.6 221.297 1330.33 222.429 1330.86 223.821C1331.39 225.204 1331.65 226.884 1331.65 228.864V230.369H1314.31V227.188H1327.49C1327.49 226.07 1327.27 225.08 1326.81 224.219C1326.36 223.348 1325.72 222.661 1324.89 222.159C1324.08 221.657 1323.12 221.406 1322.02 221.406C1320.83 221.406 1319.79 221.7 1318.9 222.287C1318.02 222.865 1317.34 223.622 1316.85 224.56C1316.38 225.488 1316.14 226.496 1316.14 227.585V230.071C1316.14 231.529 1316.4 232.77 1316.91 233.793C1317.43 234.815 1318.16 235.597 1319.08 236.136C1320.01 236.667 1321.1 236.932 1322.34 236.932C1323.14 236.932 1323.88 236.818 1324.54 236.591C1325.2 236.354 1325.77 236.004 1326.26 235.54C1326.74 235.076 1327.11 234.503 1327.36 233.821L1331.38 234.545C1331.06 235.729 1330.48 236.766 1329.65 237.656C1328.83 238.537 1327.79 239.223 1326.54 239.716C1325.3 240.199 1323.88 240.44 1322.29 240.44ZM1352.72 223.509L1348.87 224.19C1348.71 223.698 1348.45 223.229 1348.1 222.784C1347.76 222.339 1347.29 221.974 1346.71 221.69C1346.12 221.406 1345.39 221.264 1344.51 221.264C1343.3 221.264 1342.3 221.534 1341.49 222.074C1340.69 222.604 1340.29 223.291 1340.29 224.134C1340.29 224.863 1340.56 225.45 1341.1 225.895C1341.64 226.34 1342.51 226.705 1343.71 226.989L1347.18 227.784C1349.18 228.248 1350.68 228.963 1351.67 229.929C1352.65 230.895 1353.14 232.15 1353.14 233.693C1353.14 235 1352.76 236.165 1352.01 237.188C1351.26 238.201 1350.21 238.996 1348.87 239.574C1347.53 240.152 1345.98 240.44 1344.22 240.44C1341.78 240.44 1339.79 239.92 1338.24 238.878C1336.7 237.827 1335.75 236.335 1335.4 234.403L1339.51 233.778C1339.76 234.848 1340.29 235.658 1341.08 236.207C1341.88 236.747 1342.92 237.017 1344.19 237.017C1345.59 237.017 1346.7 236.728 1347.53 236.151C1348.36 235.563 1348.78 234.848 1348.78 234.006C1348.78 233.324 1348.53 232.751 1348.01 232.287C1347.51 231.823 1346.74 231.473 1345.7 231.236L1342.01 230.426C1339.97 229.962 1338.46 229.223 1337.49 228.21C1336.52 227.197 1336.04 225.914 1336.04 224.361C1336.04 223.073 1336.4 221.946 1337.12 220.98C1337.84 220.014 1338.83 219.261 1340.1 218.722C1341.37 218.172 1342.83 217.898 1344.46 217.898C1346.82 217.898 1348.68 218.409 1350.03 219.432C1351.39 220.445 1352.28 221.804 1352.72 223.509ZM1374.16 223.509L1370.31 224.19C1370.15 223.698 1369.9 223.229 1369.55 222.784C1369.2 222.339 1368.74 221.974 1368.15 221.69C1367.57 221.406 1366.83 221.264 1365.95 221.264C1364.75 221.264 1363.74 221.534 1362.94 222.074C1362.14 222.604 1361.73 223.291 1361.73 224.134C1361.73 224.863 1362 225.45 1362.54 225.895C1363.08 226.34 1363.95 226.705 1365.16 226.989L1368.62 227.784C1370.63 228.248 1372.13 228.963 1373.11 229.929C1374.1 230.895 1374.59 232.15 1374.59 233.693C1374.59 235 1374.21 236.165 1373.45 237.188C1372.7 238.201 1371.66 238.996 1370.31 239.574C1368.98 240.152 1367.43 240.44 1365.67 240.44C1363.22 240.44 1361.23 239.92 1359.69 238.878C1358.14 237.827 1357.2 236.335 1356.85 234.403L1360.95 233.778C1361.21 234.848 1361.73 235.658 1362.53 236.207C1363.32 236.747 1364.36 237.017 1365.64 237.017C1367.03 237.017 1368.14 236.728 1368.98 236.151C1369.81 235.563 1370.23 234.848 1370.23 234.006C1370.23 233.324 1369.97 232.751 1369.46 232.287C1368.96 231.823 1368.19 231.473 1367.14 231.236L1363.45 230.426C1361.42 229.962 1359.91 229.223 1358.93 228.21C1357.97 227.197 1357.49 225.914 1357.49 224.361C1357.49 223.073 1357.85 221.946 1358.56 220.98C1359.28 220.014 1360.28 219.261 1361.55 218.722C1362.82 218.172 1364.27 217.898 1365.91 217.898C1368.27 217.898 1370.12 218.409 1371.48 219.432C1372.83 220.445 1373.73 221.804 1374.16 223.509ZM1390.18 210.909H1395.51L1404.77 233.523H1405.11L1414.37 210.909H1419.7V240H1415.53V218.949H1415.26L1406.68 239.957H1403.21L1394.63 218.935H1394.36V240H1390.18V210.909ZM1435.15 240.44C1433 240.44 1431.14 239.981 1429.59 239.062C1428.05 238.134 1426.85 236.832 1426.01 235.156C1425.18 233.471 1424.76 231.496 1424.76 229.233C1424.76 226.998 1425.18 225.028 1426.01 223.324C1426.85 221.619 1428.03 220.289 1429.53 219.332C1431.05 218.376 1432.82 217.898 1434.85 217.898C1436.08 217.898 1437.27 218.101 1438.43 218.509C1439.58 218.916 1440.62 219.555 1441.54 220.426C1442.46 221.297 1443.18 222.429 1443.71 223.821C1444.24 225.204 1444.51 226.884 1444.51 228.864V230.369H1427.16V227.188H1440.34C1440.34 226.07 1440.12 225.08 1439.66 224.219C1439.21 223.348 1438.57 222.661 1437.74 222.159C1436.93 221.657 1435.97 221.406 1434.88 221.406C1433.68 221.406 1432.64 221.7 1431.75 222.287C1430.87 222.865 1430.19 223.622 1429.7 224.56C1429.23 225.488 1428.99 226.496 1428.99 227.585V230.071C1428.99 231.529 1429.25 232.77 1429.76 233.793C1430.28 234.815 1431.01 235.597 1431.94 236.136C1432.86 236.667 1433.95 236.932 1435.19 236.932C1435.99 236.932 1436.73 236.818 1437.39 236.591C1438.05 236.354 1438.63 236.004 1439.11 235.54C1439.59 235.076 1439.96 234.503 1440.22 233.821L1444.24 234.545C1443.91 235.729 1443.34 236.766 1442.5 237.656C1441.68 238.537 1440.64 239.223 1439.39 239.716C1438.15 240.199 1436.74 240.44 1435.15 240.44ZM1454.57 210.909L1454.2 231.634H1450.27L1449.9 210.909H1454.57ZM1452.24 240.27C1451.46 240.27 1450.79 239.995 1450.23 239.446C1449.67 238.887 1449.39 238.215 1449.4 237.429C1449.39 236.652 1449.67 235.99 1450.23 235.44C1450.79 234.882 1451.46 234.602 1452.24 234.602C1453.01 234.602 1453.67 234.882 1454.23 235.44C1454.79 235.99 1455.08 236.652 1455.08 237.429C1455.08 237.95 1454.94 238.428 1454.67 238.864C1454.42 239.29 1454.08 239.631 1453.65 239.886C1453.22 240.142 1452.76 240.27 1452.24 240.27Z"
    fill="white" />
  <g filter="url(#filter1_dddi_0_1)">
    <rect x="1108" y="2" width="512" height="120" rx="39" fill="#9179FF" />
    <rect x="1108.5" y="2.5" width="511" height="119" rx="38.5" stroke="url(#paint1_linear_0_1)"
      stroke-opacity="0.26" />
  </g>
  <path
    d="M1273.07 77V47.9091H1283.44C1285.71 47.9091 1287.58 48.321 1289.07 49.1449C1290.56 49.9687 1291.67 51.0956 1292.41 52.5256C1293.15 53.946 1293.52 55.5464 1293.52 57.3267C1293.52 59.1165 1293.14 60.7263 1292.39 62.1562C1291.65 63.5767 1290.54 64.7036 1289.04 65.5369C1287.55 66.3608 1285.68 66.7727 1283.43 66.7727H1276.3V63.0511H1283.03C1284.46 63.0511 1285.62 62.8049 1286.51 62.3125C1287.4 61.8106 1288.06 61.1288 1288.47 60.267C1288.89 59.4053 1289.1 58.4252 1289.1 57.3267C1289.1 56.2282 1288.89 55.2528 1288.47 54.4006C1288.06 53.5483 1287.4 52.8807 1286.5 52.3977C1285.61 51.9148 1284.43 51.6733 1282.98 51.6733H1277.46V77H1273.07ZM1298.32 77V55.1818H1302.43V58.6477H1302.65C1303.05 57.4735 1303.75 56.5502 1304.75 55.8778C1305.77 55.196 1306.91 54.8551 1308.19 54.8551C1308.46 54.8551 1308.77 54.8646 1309.13 54.8835C1309.5 54.9025 1309.79 54.9261 1310 54.9545V59.017C1309.83 58.9697 1309.52 58.9176 1309.09 58.8608C1308.65 58.7945 1308.22 58.7614 1307.78 58.7614C1306.78 58.7614 1305.88 58.9744 1305.1 59.4006C1304.32 59.8172 1303.7 60.3996 1303.25 61.1477C1302.79 61.8864 1302.57 62.7292 1302.57 63.6761V77H1298.32ZM1322.29 77.4403C1320.14 77.4403 1318.29 76.9811 1316.74 76.0625C1315.2 75.1345 1314 73.8324 1313.16 72.1562C1312.33 70.4706 1311.91 68.4962 1311.91 66.233C1311.91 63.9981 1312.33 62.0284 1313.16 60.3239C1314 58.6193 1315.18 57.2888 1316.68 56.3324C1318.2 55.3759 1319.97 54.8977 1322 54.8977C1323.23 54.8977 1324.42 55.1013 1325.57 55.5085C1326.73 55.9157 1327.77 56.5549 1328.69 57.4261C1329.6 58.2973 1330.33 59.429 1330.86 60.821C1331.39 62.2036 1331.65 63.8845 1331.65 65.8636V67.3693H1314.31V64.1875H1327.49C1327.49 63.0701 1327.27 62.0805 1326.81 61.2188C1326.36 60.3475 1325.72 59.661 1324.89 59.1591C1324.08 58.6572 1323.12 58.4062 1322.02 58.4062C1320.83 58.4062 1319.79 58.6998 1318.9 59.2869C1318.02 59.8646 1317.34 60.6222 1316.85 61.5597C1316.38 62.4877 1316.14 63.4962 1316.14 64.5852V67.071C1316.14 68.5294 1316.4 69.7699 1316.91 70.7926C1317.43 71.8153 1318.16 72.5966 1319.08 73.1364C1320.01 73.6667 1321.1 73.9318 1322.34 73.9318C1323.14 73.9318 1323.88 73.8182 1324.54 73.5909C1325.2 73.3542 1325.77 73.0038 1326.26 72.5398C1326.74 72.0758 1327.11 71.5028 1327.36 70.821L1331.38 71.5455C1331.06 72.7292 1330.48 73.7661 1329.65 74.6562C1328.83 75.5369 1327.79 76.2235 1326.54 76.7159C1325.3 77.1989 1323.88 77.4403 1322.29 77.4403ZM1352.72 60.5085L1348.87 61.1903C1348.71 60.6979 1348.45 60.2292 1348.1 59.7841C1347.76 59.339 1347.29 58.9744 1346.71 58.6903C1346.12 58.4062 1345.39 58.2642 1344.51 58.2642C1343.3 58.2642 1342.3 58.5341 1341.49 59.0739C1340.69 59.6042 1340.29 60.2907 1340.29 61.1335C1340.29 61.8627 1340.56 62.4498 1341.1 62.8949C1341.64 63.34 1342.51 63.7045 1343.71 63.9886L1347.18 64.7841C1349.18 65.2481 1350.68 65.9631 1351.67 66.929C1352.65 67.8949 1353.14 69.1496 1353.14 70.6932C1353.14 72 1352.76 73.1648 1352.01 74.1875C1351.26 75.2008 1350.21 75.9962 1348.87 76.5739C1347.53 77.1515 1345.98 77.4403 1344.22 77.4403C1341.78 77.4403 1339.79 76.9195 1338.24 75.8778C1336.7 74.8267 1335.75 73.3352 1335.4 71.4034L1339.51 70.7784C1339.76 71.8485 1340.29 72.6581 1341.08 73.2074C1341.88 73.7472 1342.92 74.017 1344.19 74.017C1345.59 74.017 1346.7 73.7282 1347.53 73.1506C1348.36 72.5634 1348.78 71.8485 1348.78 71.0057C1348.78 70.3239 1348.53 69.7509 1348.01 69.2869C1347.51 68.8229 1346.74 68.4725 1345.7 68.2358L1342.01 67.4261C1339.97 66.9621 1338.46 66.2235 1337.49 65.2102C1336.52 64.197 1336.04 62.9138 1336.04 61.3608C1336.04 60.0729 1336.4 58.946 1337.12 57.9801C1337.84 57.0142 1338.83 56.2614 1340.1 55.7216C1341.37 55.1723 1342.83 54.8977 1344.46 54.8977C1346.82 54.8977 1348.68 55.4091 1350.03 56.4318C1351.39 57.4451 1352.28 58.804 1352.72 60.5085ZM1374.16 60.5085L1370.31 61.1903C1370.15 60.6979 1369.9 60.2292 1369.55 59.7841C1369.2 59.339 1368.74 58.9744 1368.15 58.6903C1367.57 58.4062 1366.83 58.2642 1365.95 58.2642C1364.75 58.2642 1363.74 58.5341 1362.94 59.0739C1362.14 59.6042 1361.73 60.2907 1361.73 61.1335C1361.73 61.8627 1362 62.4498 1362.54 62.8949C1363.08 63.34 1363.95 63.7045 1365.16 63.9886L1368.62 64.7841C1370.63 65.2481 1372.13 65.9631 1373.11 66.929C1374.1 67.8949 1374.59 69.1496 1374.59 70.6932C1374.59 72 1374.21 73.1648 1373.45 74.1875C1372.7 75.2008 1371.66 75.9962 1370.31 76.5739C1368.98 77.1515 1367.43 77.4403 1365.67 77.4403C1363.22 77.4403 1361.23 76.9195 1359.69 75.8778C1358.14 74.8267 1357.2 73.3352 1356.85 71.4034L1360.95 70.7784C1361.21 71.8485 1361.73 72.6581 1362.53 73.2074C1363.32 73.7472 1364.36 74.017 1365.64 74.017C1367.03 74.017 1368.14 73.7282 1368.98 73.1506C1369.81 72.5634 1370.23 71.8485 1370.23 71.0057C1370.23 70.3239 1369.97 69.7509 1369.46 69.2869C1368.96 68.8229 1368.19 68.4725 1367.14 68.2358L1363.45 67.4261C1361.42 66.9621 1359.91 66.2235 1358.93 65.2102C1357.97 64.197 1357.49 62.9138 1357.49 61.3608C1357.49 60.0729 1357.85 58.946 1358.56 57.9801C1359.28 57.0142 1360.28 56.2614 1361.55 55.7216C1362.82 55.1723 1364.27 54.8977 1365.91 54.8977C1368.27 54.8977 1370.12 55.4091 1371.48 56.4318C1372.83 57.4451 1373.73 58.804 1374.16 60.5085ZM1390.18 47.9091H1395.51L1404.77 70.5227H1405.11L1414.37 47.9091H1419.7V77H1415.53V55.9489H1415.26L1406.68 76.9574H1403.21L1394.63 55.9347H1394.36V77H1390.18V47.9091ZM1435.15 77.4403C1433 77.4403 1431.14 76.9811 1429.59 76.0625C1428.05 75.1345 1426.85 73.8324 1426.01 72.1562C1425.18 70.4706 1424.76 68.4962 1424.76 66.233C1424.76 63.9981 1425.18 62.0284 1426.01 60.3239C1426.85 58.6193 1428.03 57.2888 1429.53 56.3324C1431.05 55.3759 1432.82 54.8977 1434.85 54.8977C1436.08 54.8977 1437.27 55.1013 1438.43 55.5085C1439.58 55.9157 1440.62 56.5549 1441.54 57.4261C1442.46 58.2973 1443.18 59.429 1443.71 60.821C1444.24 62.2036 1444.51 63.8845 1444.51 65.8636V67.3693H1427.16V64.1875H1440.34C1440.34 63.0701 1440.12 62.0805 1439.66 61.2188C1439.21 60.3475 1438.57 59.661 1437.74 59.1591C1436.93 58.6572 1435.97 58.4062 1434.88 58.4062C1433.68 58.4062 1432.64 58.6998 1431.75 59.2869C1430.87 59.8646 1430.19 60.6222 1429.7 61.5597C1429.23 62.4877 1428.99 63.4962 1428.99 64.5852V67.071C1428.99 68.5294 1429.25 69.7699 1429.76 70.7926C1430.28 71.8153 1431.01 72.5966 1431.94 73.1364C1432.86 73.6667 1433.95 73.9318 1435.19 73.9318C1435.99 73.9318 1436.73 73.8182 1437.39 73.5909C1438.05 73.3542 1438.63 73.0038 1439.11 72.5398C1439.59 72.0758 1439.96 71.5028 1440.22 70.821L1444.24 71.5455C1443.91 72.7292 1443.34 73.7661 1442.5 74.6562C1441.68 75.5369 1440.64 76.2235 1439.39 76.7159C1438.15 77.1989 1436.74 77.4403 1435.15 77.4403ZM1454.57 47.9091L1454.2 68.6335H1450.27L1449.9 47.9091H1454.57ZM1452.24 77.2699C1451.46 77.2699 1450.79 76.9953 1450.23 76.446C1449.67 75.8873 1449.39 75.215 1449.4 74.429C1449.39 73.6525 1449.67 72.9896 1450.23 72.4403C1450.79 71.8816 1451.46 71.6023 1452.24 71.6023C1453.01 71.6023 1453.67 71.8816 1454.23 72.4403C1454.79 72.9896 1455.08 73.6525 1455.08 74.429C1455.08 74.9498 1454.94 75.428 1454.67 75.8636C1454.42 76.2898 1454.08 76.6307 1453.65 76.8864C1453.22 77.142 1452.76 77.2699 1452.24 77.2699Z"
    fill="white" />
  <g filter="url(#filter2_dddi_0_1)">
    <rect x="546" y="165" width="512" height="120" rx="39" fill="#33C866" />
    <rect x="546.5" y="165.5" width="511" height="119" rx="38.5" stroke="url(#paint2_linear_0_1)"
      stroke-opacity="0.26" />
  </g>
  <path
    d="M711.075 240V210.909H721.444C723.708 210.909 725.583 211.321 727.069 212.145C728.556 212.969 729.669 214.096 730.407 215.526C731.146 216.946 731.515 218.546 731.515 220.327C731.515 222.116 731.141 223.726 730.393 225.156C729.654 226.577 728.537 227.704 727.041 228.537C725.554 229.361 723.684 229.773 721.43 229.773H714.299V226.051H721.032C722.462 226.051 723.622 225.805 724.512 225.312C725.403 224.811 726.056 224.129 726.473 223.267C726.889 222.405 727.098 221.425 727.098 220.327C727.098 219.228 726.889 218.253 726.473 217.401C726.056 216.548 725.398 215.881 724.498 215.398C723.608 214.915 722.434 214.673 720.975 214.673H715.464V240H711.075ZM736.32 240V218.182H740.425V221.648H740.652C741.05 220.473 741.751 219.55 742.755 218.878C743.768 218.196 744.914 217.855 746.192 217.855C746.457 217.855 746.77 217.865 747.13 217.884C747.499 217.902 747.788 217.926 747.996 217.955V222.017C747.826 221.97 747.523 221.918 747.087 221.861C746.651 221.795 746.216 221.761 745.78 221.761C744.776 221.761 743.882 221.974 743.096 222.401C742.319 222.817 741.703 223.4 741.249 224.148C740.794 224.886 740.567 225.729 740.567 226.676V240H736.32ZM760.294 240.44C758.144 240.44 756.293 239.981 754.74 239.062C753.196 238.134 752.003 236.832 751.16 235.156C750.327 233.471 749.91 231.496 749.91 229.233C749.91 226.998 750.327 225.028 751.16 223.324C752.003 221.619 753.177 220.289 754.683 219.332C756.198 218.376 757.969 217.898 759.995 217.898C761.226 217.898 762.42 218.101 763.575 218.509C764.73 218.916 765.767 219.555 766.686 220.426C767.604 221.297 768.329 222.429 768.859 223.821C769.389 225.204 769.654 226.884 769.654 228.864V230.369H752.311V227.188H765.493C765.493 226.07 765.265 225.08 764.811 224.219C764.356 223.348 763.717 222.661 762.893 222.159C762.079 221.657 761.122 221.406 760.024 221.406C758.831 221.406 757.789 221.7 756.899 222.287C756.018 222.865 755.336 223.622 754.853 224.56C754.38 225.488 754.143 226.496 754.143 227.585V230.071C754.143 231.529 754.399 232.77 754.91 233.793C755.431 234.815 756.155 235.597 757.083 236.136C758.011 236.667 759.096 236.932 760.336 236.932C761.141 236.932 761.875 236.818 762.538 236.591C763.201 236.354 763.774 236.004 764.257 235.54C764.74 235.076 765.109 234.503 765.365 233.821L769.385 234.545C769.063 235.729 768.485 236.766 767.652 237.656C766.828 238.537 765.791 239.223 764.541 239.716C763.3 240.199 761.885 240.44 760.294 240.44ZM790.716 223.509L786.867 224.19C786.706 223.698 786.45 223.229 786.1 222.784C785.759 222.339 785.295 221.974 784.708 221.69C784.121 221.406 783.387 221.264 782.506 221.264C781.303 221.264 780.3 221.534 779.495 222.074C778.69 222.604 778.287 223.291 778.287 224.134C778.287 224.863 778.557 225.45 779.097 225.895C779.637 226.34 780.508 226.705 781.711 226.989L785.176 227.784C787.184 228.248 788.68 228.963 789.665 229.929C790.65 230.895 791.142 232.15 791.142 233.693C791.142 235 790.764 236.165 790.006 237.188C789.258 238.201 788.212 238.996 786.867 239.574C785.532 240.152 783.983 240.44 782.222 240.44C779.779 240.44 777.785 239.92 776.242 238.878C774.698 237.827 773.751 236.335 773.401 234.403L777.506 233.778C777.762 234.848 778.287 235.658 779.083 236.207C779.878 236.747 780.915 237.017 782.194 237.017C783.586 237.017 784.698 236.728 785.532 236.151C786.365 235.563 786.782 234.848 786.782 234.006C786.782 233.324 786.526 232.751 786.015 232.287C785.513 231.823 784.741 231.473 783.699 231.236L780.006 230.426C777.97 229.962 776.464 229.223 775.489 228.21C774.523 227.197 774.04 225.914 774.04 224.361C774.04 223.073 774.4 221.946 775.12 220.98C775.839 220.014 776.834 219.261 778.103 218.722C779.372 218.172 780.825 217.898 782.463 217.898C784.821 217.898 786.677 218.409 788.032 219.432C789.386 220.445 790.281 221.804 790.716 223.509ZM812.162 223.509L808.312 224.19C808.151 223.698 807.895 223.229 807.545 222.784C807.204 222.339 806.74 221.974 806.153 221.69C805.566 221.406 804.832 221.264 803.951 221.264C802.749 221.264 801.745 221.534 800.94 222.074C800.135 222.604 799.733 223.291 799.733 224.134C799.733 224.863 800.002 225.45 800.542 225.895C801.082 226.34 801.953 226.705 803.156 226.989L806.622 227.784C808.629 228.248 810.126 228.963 811.11 229.929C812.095 230.895 812.588 232.15 812.588 233.693C812.588 235 812.209 236.165 811.451 237.188C810.703 238.201 809.657 238.996 808.312 239.574C806.977 240.152 805.429 240.44 803.667 240.44C801.224 240.44 799.231 239.92 797.687 238.878C796.144 237.827 795.197 236.335 794.846 234.403L798.951 233.778C799.207 234.848 799.733 235.658 800.528 236.207C801.324 236.747 802.36 237.017 803.639 237.017C805.031 237.017 806.144 236.728 806.977 236.151C807.81 235.563 808.227 234.848 808.227 234.006C808.227 233.324 807.971 232.751 807.46 232.287C806.958 231.823 806.186 231.473 805.145 231.236L801.451 230.426C799.415 229.962 797.91 229.223 796.934 228.21C795.968 227.197 795.485 225.914 795.485 224.361C795.485 223.073 795.845 221.946 796.565 220.98C797.285 220.014 798.279 219.261 799.548 218.722C800.817 218.172 802.27 217.898 803.909 217.898C806.267 217.898 808.123 218.409 809.477 219.432C810.831 220.445 811.726 221.804 812.162 223.509ZM828.184 210.909H833.511L842.772 233.523H843.113L852.375 210.909H857.701V240H853.525V218.949H853.255L844.676 239.957H841.21L832.63 218.935H832.36V240H828.184V210.909ZM873.145 240.44C870.996 240.44 869.144 239.981 867.591 239.062C866.048 238.134 864.855 236.832 864.012 235.156C863.178 233.471 862.762 231.496 862.762 229.233C862.762 226.998 863.178 225.028 864.012 223.324C864.855 221.619 866.029 220.289 867.534 219.332C869.05 218.376 870.82 217.898 872.847 217.898C874.078 217.898 875.271 218.101 876.426 218.509C877.582 218.916 878.619 219.555 879.537 220.426C880.456 221.297 881.18 222.429 881.711 223.821C882.241 225.204 882.506 226.884 882.506 228.864V230.369H865.162V227.188H878.344C878.344 226.07 878.117 225.08 877.662 224.219C877.208 223.348 876.569 222.661 875.745 222.159C874.93 221.657 873.974 221.406 872.875 221.406C871.682 221.406 870.641 221.7 869.75 222.287C868.87 222.865 868.188 223.622 867.705 224.56C867.231 225.488 866.995 226.496 866.995 227.585V230.071C866.995 231.529 867.25 232.77 867.762 233.793C868.283 234.815 869.007 235.597 869.935 236.136C870.863 236.667 871.947 236.932 873.188 236.932C873.993 236.932 874.727 236.818 875.39 236.591C876.052 236.354 876.625 236.004 877.108 235.54C877.591 235.076 877.961 234.503 878.216 233.821L882.236 234.545C881.914 235.729 881.337 236.766 880.503 237.656C879.679 238.537 878.642 239.223 877.392 239.716C876.152 240.199 874.736 240.44 873.145 240.44ZM892.574 210.909L892.204 231.634H888.27L887.9 210.909H892.574ZM890.244 240.27C889.458 240.27 888.786 239.995 888.227 239.446C887.668 238.887 887.394 238.215 887.403 237.429C887.394 236.652 887.668 235.99 888.227 235.44C888.786 234.882 889.458 234.602 890.244 234.602C891.011 234.602 891.674 234.882 892.233 235.44C892.791 235.99 893.075 236.652 893.085 237.429C893.075 237.95 892.938 238.428 892.673 238.864C892.417 239.29 892.076 239.631 891.65 239.886C891.224 240.142 890.755 240.27 890.244 240.27Z"
    fill="white" />
  <g filter="url(#filter3_dddi_0_1)">
    <rect x="546" y="2" width="512" height="120" rx="39" fill="#FF8A09" />
    <rect x="546.5" y="2.5" width="511" height="119" rx="38.5" stroke="url(#paint3_linear_0_1)" stroke-opacity="0.26" />
  </g>
  <path
    d="M711.075 77V47.9091H721.444C723.708 47.9091 725.583 48.321 727.069 49.1449C728.556 49.9687 729.669 51.0956 730.407 52.5256C731.146 53.946 731.515 55.5464 731.515 57.3267C731.515 59.1165 731.141 60.7263 730.393 62.1562C729.654 63.5767 728.537 64.7036 727.041 65.5369C725.554 66.3608 723.684 66.7727 721.43 66.7727H714.299V63.0511H721.032C722.462 63.0511 723.622 62.8049 724.512 62.3125C725.403 61.8106 726.056 61.1288 726.473 60.267C726.889 59.4053 727.098 58.4252 727.098 57.3267C727.098 56.2282 726.889 55.2528 726.473 54.4006C726.056 53.5483 725.398 52.8807 724.498 52.3977C723.608 51.9148 722.434 51.6733 720.975 51.6733H715.464V77H711.075ZM736.32 77V55.1818H740.425V58.6477H740.652C741.05 57.4735 741.751 56.5502 742.755 55.8778C743.768 55.196 744.914 54.8551 746.192 54.8551C746.457 54.8551 746.77 54.8646 747.13 54.8835C747.499 54.9025 747.788 54.9261 747.996 54.9545V59.017C747.826 58.9697 747.523 58.9176 747.087 58.8608C746.651 58.7945 746.216 58.7614 745.78 58.7614C744.776 58.7614 743.882 58.9744 743.096 59.4006C742.319 59.8172 741.703 60.3996 741.249 61.1477C740.794 61.8864 740.567 62.7292 740.567 63.6761V77H736.32ZM760.294 77.4403C758.144 77.4403 756.293 76.9811 754.74 76.0625C753.196 75.1345 752.003 73.8324 751.16 72.1562C750.327 70.4706 749.91 68.4962 749.91 66.233C749.91 63.9981 750.327 62.0284 751.16 60.3239C752.003 58.6193 753.177 57.2888 754.683 56.3324C756.198 55.3759 757.969 54.8977 759.995 54.8977C761.226 54.8977 762.42 55.1013 763.575 55.5085C764.73 55.9157 765.767 56.5549 766.686 57.4261C767.604 58.2973 768.329 59.429 768.859 60.821C769.389 62.2036 769.654 63.8845 769.654 65.8636V67.3693H752.311V64.1875H765.493C765.493 63.0701 765.265 62.0805 764.811 61.2188C764.356 60.3475 763.717 59.661 762.893 59.1591C762.079 58.6572 761.122 58.4062 760.024 58.4062C758.831 58.4062 757.789 58.6998 756.899 59.2869C756.018 59.8646 755.336 60.6222 754.853 61.5597C754.38 62.4877 754.143 63.4962 754.143 64.5852V67.071C754.143 68.5294 754.399 69.7699 754.91 70.7926C755.431 71.8153 756.155 72.5966 757.083 73.1364C758.011 73.6667 759.096 73.9318 760.336 73.9318C761.141 73.9318 761.875 73.8182 762.538 73.5909C763.201 73.3542 763.774 73.0038 764.257 72.5398C764.74 72.0758 765.109 71.5028 765.365 70.821L769.385 71.5455C769.063 72.7292 768.485 73.7661 767.652 74.6562C766.828 75.5369 765.791 76.2235 764.541 76.7159C763.3 77.1989 761.885 77.4403 760.294 77.4403ZM790.716 60.5085L786.867 61.1903C786.706 60.6979 786.45 60.2292 786.1 59.7841C785.759 59.339 785.295 58.9744 784.708 58.6903C784.121 58.4062 783.387 58.2642 782.506 58.2642C781.303 58.2642 780.3 58.5341 779.495 59.0739C778.69 59.6042 778.287 60.2907 778.287 61.1335C778.287 61.8627 778.557 62.4498 779.097 62.8949C779.637 63.34 780.508 63.7045 781.711 63.9886L785.176 64.7841C787.184 65.2481 788.68 65.9631 789.665 66.929C790.65 67.8949 791.142 69.1496 791.142 70.6932C791.142 72 790.764 73.1648 790.006 74.1875C789.258 75.2008 788.212 75.9962 786.867 76.5739C785.532 77.1515 783.983 77.4403 782.222 77.4403C779.779 77.4403 777.785 76.9195 776.242 75.8778C774.698 74.8267 773.751 73.3352 773.401 71.4034L777.506 70.7784C777.762 71.8485 778.287 72.6581 779.083 73.2074C779.878 73.7472 780.915 74.017 782.194 74.017C783.586 74.017 784.698 73.7282 785.532 73.1506C786.365 72.5634 786.782 71.8485 786.782 71.0057C786.782 70.3239 786.526 69.7509 786.015 69.2869C785.513 68.8229 784.741 68.4725 783.699 68.2358L780.006 67.4261C777.97 66.9621 776.464 66.2235 775.489 65.2102C774.523 64.197 774.04 62.9138 774.04 61.3608C774.04 60.0729 774.4 58.946 775.12 57.9801C775.839 57.0142 776.834 56.2614 778.103 55.7216C779.372 55.1723 780.825 54.8977 782.463 54.8977C784.821 54.8977 786.677 55.4091 788.032 56.4318C789.386 57.4451 790.281 58.804 790.716 60.5085ZM812.162 60.5085L808.312 61.1903C808.151 60.6979 807.895 60.2292 807.545 59.7841C807.204 59.339 806.74 58.9744 806.153 58.6903C805.566 58.4062 804.832 58.2642 803.951 58.2642C802.749 58.2642 801.745 58.5341 800.94 59.0739C800.135 59.6042 799.733 60.2907 799.733 61.1335C799.733 61.8627 800.002 62.4498 800.542 62.8949C801.082 63.34 801.953 63.7045 803.156 63.9886L806.622 64.7841C808.629 65.2481 810.126 65.9631 811.11 66.929C812.095 67.8949 812.588 69.1496 812.588 70.6932C812.588 72 812.209 73.1648 811.451 74.1875C810.703 75.2008 809.657 75.9962 808.312 76.5739C806.977 77.1515 805.429 77.4403 803.667 77.4403C801.224 77.4403 799.231 76.9195 797.687 75.8778C796.144 74.8267 795.197 73.3352 794.846 71.4034L798.951 70.7784C799.207 71.8485 799.733 72.6581 800.528 73.2074C801.324 73.7472 802.36 74.017 803.639 74.017C805.031 74.017 806.144 73.7282 806.977 73.1506C807.81 72.5634 808.227 71.8485 808.227 71.0057C808.227 70.3239 807.971 69.7509 807.46 69.2869C806.958 68.8229 806.186 68.4725 805.145 68.2358L801.451 67.4261C799.415 66.9621 797.91 66.2235 796.934 65.2102C795.968 64.197 795.485 62.9138 795.485 61.3608C795.485 60.0729 795.845 58.946 796.565 57.9801C797.285 57.0142 798.279 56.2614 799.548 55.7216C800.817 55.1723 802.27 54.8977 803.909 54.8977C806.267 54.8977 808.123 55.4091 809.477 56.4318C810.831 57.4451 811.726 58.804 812.162 60.5085ZM828.184 47.9091H833.511L842.772 70.5227H843.113L852.375 47.9091H857.701V77H853.525V55.9489H853.255L844.676 76.9574H841.21L832.63 55.9347H832.36V77H828.184V47.9091ZM873.145 77.4403C870.996 77.4403 869.144 76.9811 867.591 76.0625C866.048 75.1345 864.855 73.8324 864.012 72.1562C863.178 70.4706 862.762 68.4962 862.762 66.233C862.762 63.9981 863.178 62.0284 864.012 60.3239C864.855 58.6193 866.029 57.2888 867.534 56.3324C869.05 55.3759 870.82 54.8977 872.847 54.8977C874.078 54.8977 875.271 55.1013 876.426 55.5085C877.582 55.9157 878.619 56.5549 879.537 57.4261C880.456 58.2973 881.18 59.429 881.711 60.821C882.241 62.2036 882.506 63.8845 882.506 65.8636V67.3693H865.162V64.1875H878.344C878.344 63.0701 878.117 62.0805 877.662 61.2188C877.208 60.3475 876.569 59.661 875.745 59.1591C874.93 58.6572 873.974 58.4062 872.875 58.4062C871.682 58.4062 870.641 58.6998 869.75 59.2869C868.87 59.8646 868.188 60.6222 867.705 61.5597C867.231 62.4877 866.995 63.4962 866.995 64.5852V67.071C866.995 68.5294 867.25 69.7699 867.762 70.7926C868.283 71.8153 869.007 72.5966 869.935 73.1364C870.863 73.6667 871.947 73.9318 873.188 73.9318C873.993 73.9318 874.727 73.8182 875.39 73.5909C876.052 73.3542 876.625 73.0038 877.108 72.5398C877.591 72.0758 877.961 71.5028 878.216 70.821L882.236 71.5455C881.914 72.7292 881.337 73.7661 880.503 74.6562C879.679 75.5369 878.642 76.2235 877.392 76.7159C876.152 77.1989 874.736 77.4403 873.145 77.4403ZM892.574 47.9091L892.204 68.6335H888.27L887.9 47.9091H892.574ZM890.244 77.2699C889.458 77.2699 888.786 76.9953 888.227 76.446C887.668 75.8873 887.394 75.215 887.403 74.429C887.394 73.6525 887.668 72.9896 888.227 72.4403C888.786 71.8816 889.458 71.6023 890.244 71.6023C891.011 71.6023 891.674 71.8816 892.233 72.4403C892.791 72.9896 893.075 73.6525 893.085 74.429C893.075 74.9498 892.938 75.428 892.673 75.8636C892.417 76.2898 892.076 76.6307 891.65 76.8864C891.224 77.142 890.755 77.2699 890.244 77.2699Z"
    fill="white" />
  <g filter="url(#filter4_dddi_0_1)">
    <rect x="4" y="165" width="512" height="120" rx="39" fill="#DF3C3D" />
    <rect x="4.5" y="165.5" width="511" height="119" rx="38.5" stroke="url(#paint4_linear_0_1)" stroke-opacity="0.26" />
  </g>
  <path
    d="M169.075 240V210.909H179.444C181.708 210.909 183.583 211.321 185.069 212.145C186.556 212.969 187.669 214.096 188.407 215.526C189.146 216.946 189.515 218.546 189.515 220.327C189.515 222.116 189.141 223.726 188.393 225.156C187.654 226.577 186.537 227.704 185.041 228.537C183.554 229.361 181.684 229.773 179.43 229.773H172.299V226.051H179.032C180.462 226.051 181.622 225.805 182.512 225.312C183.403 224.811 184.056 224.129 184.473 223.267C184.889 222.405 185.098 221.425 185.098 220.327C185.098 219.228 184.889 218.253 184.473 217.401C184.056 216.548 183.398 215.881 182.498 215.398C181.608 214.915 180.434 214.673 178.975 214.673H173.464V240H169.075ZM194.32 240V218.182H198.425V221.648H198.652C199.05 220.473 199.751 219.55 200.755 218.878C201.768 218.196 202.914 217.855 204.192 217.855C204.457 217.855 204.77 217.865 205.13 217.884C205.499 217.902 205.788 217.926 205.996 217.955V222.017C205.826 221.97 205.523 221.918 205.087 221.861C204.651 221.795 204.216 221.761 203.78 221.761C202.776 221.761 201.882 221.974 201.096 222.401C200.319 222.817 199.703 223.4 199.249 224.148C198.794 224.886 198.567 225.729 198.567 226.676V240H194.32ZM218.294 240.44C216.144 240.44 214.293 239.981 212.74 239.062C211.196 238.134 210.003 236.832 209.16 235.156C208.327 233.471 207.91 231.496 207.91 229.233C207.91 226.998 208.327 225.028 209.16 223.324C210.003 221.619 211.177 220.289 212.683 219.332C214.198 218.376 215.969 217.898 217.995 217.898C219.226 217.898 220.42 218.101 221.575 218.509C222.73 218.916 223.767 219.555 224.686 220.426C225.604 221.297 226.329 222.429 226.859 223.821C227.389 225.204 227.654 226.884 227.654 228.864V230.369H210.311V227.188H223.493C223.493 226.07 223.265 225.08 222.811 224.219C222.356 223.348 221.717 222.661 220.893 222.159C220.079 221.657 219.122 221.406 218.024 221.406C216.831 221.406 215.789 221.7 214.899 222.287C214.018 222.865 213.336 223.622 212.853 224.56C212.38 225.488 212.143 226.496 212.143 227.585V230.071C212.143 231.529 212.399 232.77 212.91 233.793C213.431 234.815 214.155 235.597 215.083 236.136C216.011 236.667 217.096 236.932 218.336 236.932C219.141 236.932 219.875 236.818 220.538 236.591C221.201 236.354 221.774 236.004 222.257 235.54C222.74 235.076 223.109 234.503 223.365 233.821L227.385 234.545C227.063 235.729 226.485 236.766 225.652 237.656C224.828 238.537 223.791 239.223 222.541 239.716C221.3 240.199 219.885 240.44 218.294 240.44ZM248.716 223.509L244.867 224.19C244.706 223.698 244.45 223.229 244.1 222.784C243.759 222.339 243.295 221.974 242.708 221.69C242.121 221.406 241.387 221.264 240.506 221.264C239.303 221.264 238.3 221.534 237.495 222.074C236.69 222.604 236.287 223.291 236.287 224.134C236.287 224.863 236.557 225.45 237.097 225.895C237.637 226.34 238.508 226.705 239.711 226.989L243.176 227.784C245.184 228.248 246.68 228.963 247.665 229.929C248.65 230.895 249.142 232.15 249.142 233.693C249.142 235 248.764 236.165 248.006 237.188C247.258 238.201 246.212 238.996 244.867 239.574C243.532 240.152 241.983 240.44 240.222 240.44C237.779 240.44 235.785 239.92 234.242 238.878C232.698 237.827 231.751 236.335 231.401 234.403L235.506 233.778C235.762 234.848 236.287 235.658 237.083 236.207C237.878 236.747 238.915 237.017 240.194 237.017C241.586 237.017 242.698 236.728 243.532 236.151C244.365 235.563 244.782 234.848 244.782 234.006C244.782 233.324 244.526 232.751 244.015 232.287C243.513 231.823 242.741 231.473 241.699 231.236L238.006 230.426C235.97 229.962 234.464 229.223 233.489 228.21C232.523 227.197 232.04 225.914 232.04 224.361C232.04 223.073 232.4 221.946 233.12 220.98C233.839 220.014 234.834 219.261 236.103 218.722C237.372 218.172 238.825 217.898 240.463 217.898C242.821 217.898 244.677 218.409 246.032 219.432C247.386 220.445 248.281 221.804 248.716 223.509ZM270.162 223.509L266.312 224.19C266.151 223.698 265.895 223.229 265.545 222.784C265.204 222.339 264.74 221.974 264.153 221.69C263.566 221.406 262.832 221.264 261.951 221.264C260.749 221.264 259.745 221.534 258.94 222.074C258.135 222.604 257.733 223.291 257.733 224.134C257.733 224.863 258.002 225.45 258.542 225.895C259.082 226.34 259.953 226.705 261.156 226.989L264.622 227.784C266.629 228.248 268.126 228.963 269.11 229.929C270.095 230.895 270.588 232.15 270.588 233.693C270.588 235 270.209 236.165 269.451 237.188C268.703 238.201 267.657 238.996 266.312 239.574C264.977 240.152 263.429 240.44 261.667 240.44C259.224 240.44 257.231 239.92 255.687 238.878C254.144 237.827 253.197 236.335 252.846 234.403L256.951 233.778C257.207 234.848 257.733 235.658 258.528 236.207C259.324 236.747 260.36 237.017 261.639 237.017C263.031 237.017 264.144 236.728 264.977 236.151C265.81 235.563 266.227 234.848 266.227 234.006C266.227 233.324 265.971 232.751 265.46 232.287C264.958 231.823 264.186 231.473 263.145 231.236L259.451 230.426C257.415 229.962 255.91 229.223 254.934 228.21C253.968 227.197 253.485 225.914 253.485 224.361C253.485 223.073 253.845 221.946 254.565 220.98C255.285 220.014 256.279 219.261 257.548 218.722C258.817 218.172 260.27 217.898 261.909 217.898C264.267 217.898 266.123 218.409 267.477 219.432C268.831 220.445 269.726 221.804 270.162 223.509ZM286.184 210.909H291.511L300.772 233.523H301.113L310.375 210.909H315.701V240H311.525V218.949H311.255L302.676 239.957H299.21L290.63 218.935H290.36V240H286.184V210.909ZM331.145 240.44C328.996 240.44 327.144 239.981 325.591 239.062C324.048 238.134 322.855 236.832 322.012 235.156C321.178 233.471 320.762 231.496 320.762 229.233C320.762 226.998 321.178 225.028 322.012 223.324C322.855 221.619 324.029 220.289 325.534 219.332C327.05 218.376 328.82 217.898 330.847 217.898C332.078 217.898 333.271 218.101 334.426 218.509C335.582 218.916 336.619 219.555 337.537 220.426C338.456 221.297 339.18 222.429 339.711 223.821C340.241 225.204 340.506 226.884 340.506 228.864V230.369H323.162V227.188H336.344C336.344 226.07 336.117 225.08 335.662 224.219C335.208 223.348 334.569 222.661 333.745 222.159C332.93 221.657 331.974 221.406 330.875 221.406C329.682 221.406 328.641 221.7 327.75 222.287C326.87 222.865 326.188 223.622 325.705 224.56C325.231 225.488 324.995 226.496 324.995 227.585V230.071C324.995 231.529 325.25 232.77 325.762 233.793C326.283 234.815 327.007 235.597 327.935 236.136C328.863 236.667 329.947 236.932 331.188 236.932C331.993 236.932 332.727 236.818 333.39 236.591C334.052 236.354 334.625 236.004 335.108 235.54C335.591 235.076 335.961 234.503 336.216 233.821L340.236 234.545C339.914 235.729 339.337 236.766 338.503 237.656C337.679 238.537 336.642 239.223 335.392 239.716C334.152 240.199 332.736 240.44 331.145 240.44ZM350.574 210.909L350.204 231.634H346.27L345.9 210.909H350.574ZM348.244 240.27C347.458 240.27 346.786 239.995 346.227 239.446C345.668 238.887 345.394 238.215 345.403 237.429C345.394 236.652 345.668 235.99 346.227 235.44C346.786 234.882 347.458 234.602 348.244 234.602C349.011 234.602 349.674 234.882 350.233 235.44C350.791 235.99 351.075 236.652 351.085 237.429C351.075 237.95 350.938 238.428 350.673 238.864C350.417 239.29 350.076 239.631 349.65 239.886C349.224 240.142 348.755 240.27 348.244 240.27Z"
    fill="white" />
  <g filter="url(#filter5_dddi_0_1)">
    <rect x="563" y="486" width="512" height="120" rx="39" fill="#FF6C05" />
    <rect x="563.5" y="486.5" width="511" height="119" rx="38.5" stroke="url(#paint5_linear_0_1)"
      stroke-opacity="0.26" />
  </g>
  <path
    d="M728.075 561V531.909H738.444C740.708 531.909 742.583 532.321 744.069 533.145C745.556 533.969 746.669 535.096 747.407 536.526C748.146 537.946 748.515 539.546 748.515 541.327C748.515 543.116 748.141 544.726 747.393 546.156C746.654 547.577 745.537 548.704 744.041 549.537C742.554 550.361 740.684 550.773 738.43 550.773H731.299V547.051H738.032C739.462 547.051 740.622 546.805 741.512 546.312C742.403 545.811 743.056 545.129 743.473 544.267C743.889 543.405 744.098 542.425 744.098 541.327C744.098 540.228 743.889 539.253 743.473 538.401C743.056 537.548 742.398 536.881 741.498 536.398C740.608 535.915 739.434 535.673 737.975 535.673H732.464V561H728.075ZM753.32 561V539.182H757.425V542.648H757.652C758.05 541.473 758.751 540.55 759.755 539.878C760.768 539.196 761.914 538.855 763.192 538.855C763.457 538.855 763.77 538.865 764.13 538.884C764.499 538.902 764.788 538.926 764.996 538.955V543.017C764.826 542.97 764.523 542.918 764.087 542.861C763.651 542.795 763.216 542.761 762.78 542.761C761.776 542.761 760.882 542.974 760.096 543.401C759.319 543.817 758.703 544.4 758.249 545.148C757.794 545.886 757.567 546.729 757.567 547.676V561H753.32ZM777.294 561.44C775.144 561.44 773.293 560.981 771.74 560.062C770.196 559.134 769.003 557.832 768.16 556.156C767.327 554.471 766.91 552.496 766.91 550.233C766.91 547.998 767.327 546.028 768.16 544.324C769.003 542.619 770.177 541.289 771.683 540.332C773.198 539.376 774.969 538.898 776.995 538.898C778.226 538.898 779.42 539.101 780.575 539.509C781.73 539.916 782.767 540.555 783.686 541.426C784.604 542.297 785.329 543.429 785.859 544.821C786.389 546.204 786.654 547.884 786.654 549.864V551.369H769.311V548.188H782.493C782.493 547.07 782.265 546.08 781.811 545.219C781.356 544.348 780.717 543.661 779.893 543.159C779.079 542.657 778.122 542.406 777.024 542.406C775.831 542.406 774.789 542.7 773.899 543.287C773.018 543.865 772.336 544.622 771.853 545.56C771.38 546.488 771.143 547.496 771.143 548.585V551.071C771.143 552.529 771.399 553.77 771.91 554.793C772.431 555.815 773.155 556.597 774.083 557.136C775.011 557.667 776.096 557.932 777.336 557.932C778.141 557.932 778.875 557.818 779.538 557.591C780.201 557.354 780.774 557.004 781.257 556.54C781.74 556.076 782.109 555.503 782.365 554.821L786.385 555.545C786.063 556.729 785.485 557.766 784.652 558.656C783.828 559.537 782.791 560.223 781.541 560.716C780.3 561.199 778.885 561.44 777.294 561.44ZM807.716 544.509L803.867 545.19C803.706 544.698 803.45 544.229 803.1 543.784C802.759 543.339 802.295 542.974 801.708 542.69C801.121 542.406 800.387 542.264 799.506 542.264C798.303 542.264 797.3 542.534 796.495 543.074C795.69 543.604 795.287 544.291 795.287 545.134C795.287 545.863 795.557 546.45 796.097 546.895C796.637 547.34 797.508 547.705 798.711 547.989L802.176 548.784C804.184 549.248 805.68 549.963 806.665 550.929C807.65 551.895 808.142 553.15 808.142 554.693C808.142 556 807.764 557.165 807.006 558.188C806.258 559.201 805.212 559.996 803.867 560.574C802.532 561.152 800.983 561.44 799.222 561.44C796.779 561.44 794.785 560.92 793.242 559.878C791.698 558.827 790.751 557.335 790.401 555.403L794.506 554.778C794.762 555.848 795.287 556.658 796.083 557.207C796.878 557.747 797.915 558.017 799.194 558.017C800.586 558.017 801.698 557.728 802.532 557.151C803.365 556.563 803.782 555.848 803.782 555.006C803.782 554.324 803.526 553.751 803.015 553.287C802.513 552.823 801.741 552.473 800.699 552.236L797.006 551.426C794.97 550.962 793.464 550.223 792.489 549.21C791.523 548.197 791.04 546.914 791.04 545.361C791.04 544.073 791.4 542.946 792.12 541.98C792.839 541.014 793.834 540.261 795.103 539.722C796.372 539.172 797.825 538.898 799.463 538.898C801.821 538.898 803.677 539.409 805.032 540.432C806.386 541.445 807.281 542.804 807.716 544.509ZM829.162 544.509L825.312 545.19C825.151 544.698 824.895 544.229 824.545 543.784C824.204 543.339 823.74 542.974 823.153 542.69C822.566 542.406 821.832 542.264 820.951 542.264C819.749 542.264 818.745 542.534 817.94 543.074C817.135 543.604 816.733 544.291 816.733 545.134C816.733 545.863 817.002 546.45 817.542 546.895C818.082 547.34 818.953 547.705 820.156 547.989L823.622 548.784C825.629 549.248 827.126 549.963 828.11 550.929C829.095 551.895 829.588 553.15 829.588 554.693C829.588 556 829.209 557.165 828.451 558.188C827.703 559.201 826.657 559.996 825.312 560.574C823.977 561.152 822.429 561.44 820.667 561.44C818.224 561.44 816.231 560.92 814.687 559.878C813.144 558.827 812.197 557.335 811.846 555.403L815.951 554.778C816.207 555.848 816.733 556.658 817.528 557.207C818.324 557.747 819.36 558.017 820.639 558.017C822.031 558.017 823.144 557.728 823.977 557.151C824.81 556.563 825.227 555.848 825.227 555.006C825.227 554.324 824.971 553.751 824.46 553.287C823.958 552.823 823.186 552.473 822.145 552.236L818.451 551.426C816.415 550.962 814.91 550.223 813.934 549.21C812.968 548.197 812.485 546.914 812.485 545.361C812.485 544.073 812.845 542.946 813.565 541.98C814.285 541.014 815.279 540.261 816.548 539.722C817.817 539.172 819.27 538.898 820.909 538.898C823.267 538.898 825.123 539.409 826.477 540.432C827.831 541.445 828.726 542.804 829.162 544.509ZM845.184 531.909H850.511L859.772 554.523H860.113L869.375 531.909H874.701V561H870.525V539.949H870.255L861.676 560.957H858.21L849.63 539.935H849.36V561H845.184V531.909ZM890.145 561.44C887.996 561.44 886.144 560.981 884.591 560.062C883.048 559.134 881.855 557.832 881.012 556.156C880.178 554.471 879.762 552.496 879.762 550.233C879.762 547.998 880.178 546.028 881.012 544.324C881.855 542.619 883.029 541.289 884.534 540.332C886.05 539.376 887.82 538.898 889.847 538.898C891.078 538.898 892.271 539.101 893.426 539.509C894.582 539.916 895.619 540.555 896.537 541.426C897.456 542.297 898.18 543.429 898.711 544.821C899.241 546.204 899.506 547.884 899.506 549.864V551.369H882.162V548.188H895.344C895.344 547.07 895.117 546.08 894.662 545.219C894.208 544.348 893.569 543.661 892.745 543.159C891.93 542.657 890.974 542.406 889.875 542.406C888.682 542.406 887.641 542.7 886.75 543.287C885.87 543.865 885.188 544.622 884.705 545.56C884.231 546.488 883.995 547.496 883.995 548.585V551.071C883.995 552.529 884.25 553.77 884.762 554.793C885.283 555.815 886.007 556.597 886.935 557.136C887.863 557.667 888.947 557.932 890.188 557.932C890.993 557.932 891.727 557.818 892.39 557.591C893.052 557.354 893.625 557.004 894.108 556.54C894.591 556.076 894.961 555.503 895.216 554.821L899.236 555.545C898.914 556.729 898.337 557.766 897.503 558.656C896.679 559.537 895.642 560.223 894.392 560.716C893.152 561.199 891.736 561.44 890.145 561.44ZM909.574 531.909L909.204 552.634H905.27L904.9 531.909H909.574ZM907.244 561.27C906.458 561.27 905.786 560.995 905.227 560.446C904.668 559.887 904.394 559.215 904.403 558.429C904.394 557.652 904.668 556.99 905.227 556.44C905.786 555.882 906.458 555.602 907.244 555.602C908.011 555.602 908.674 555.882 909.233 556.44C909.791 556.99 910.075 557.652 910.085 558.429C910.075 558.95 909.938 559.428 909.673 559.864C909.417 560.29 909.076 560.631 908.65 560.886C908.224 561.142 907.755 561.27 907.244 561.27Z"
    fill="white" />
  <g filter="url(#filter6_dddi_0_1)">
    <rect x="4" y="2" width="512" height="120" rx="39" fill="#05B4FF" />
    <rect x="4.5" y="2.5" width="511" height="119" rx="38.5" stroke="url(#paint6_linear_0_1)" stroke-opacity="0.26" />
  </g>
  <path
    d="M169.075 77V47.9091H179.444C181.708 47.9091 183.583 48.321 185.069 49.1449C186.556 49.9687 187.669 51.0956 188.407 52.5256C189.146 53.946 189.515 55.5464 189.515 57.3267C189.515 59.1165 189.141 60.7263 188.393 62.1562C187.654 63.5767 186.537 64.7036 185.041 65.5369C183.554 66.3608 181.684 66.7727 179.43 66.7727H172.299V63.0511H179.032C180.462 63.0511 181.622 62.8049 182.512 62.3125C183.403 61.8106 184.056 61.1288 184.473 60.267C184.889 59.4053 185.098 58.4252 185.098 57.3267C185.098 56.2282 184.889 55.2528 184.473 54.4006C184.056 53.5483 183.398 52.8807 182.498 52.3977C181.608 51.9148 180.434 51.6733 178.975 51.6733H173.464V77H169.075ZM194.32 77V55.1818H198.425V58.6477H198.652C199.05 57.4735 199.751 56.5502 200.755 55.8778C201.768 55.196 202.914 54.8551 204.192 54.8551C204.457 54.8551 204.77 54.8646 205.13 54.8835C205.499 54.9025 205.788 54.9261 205.996 54.9545V59.017C205.826 58.9697 205.523 58.9176 205.087 58.8608C204.651 58.7945 204.216 58.7614 203.78 58.7614C202.776 58.7614 201.882 58.9744 201.096 59.4006C200.319 59.8172 199.703 60.3996 199.249 61.1477C198.794 61.8864 198.567 62.7292 198.567 63.6761V77H194.32ZM218.294 77.4403C216.144 77.4403 214.293 76.9811 212.74 76.0625C211.196 75.1345 210.003 73.8324 209.16 72.1562C208.327 70.4706 207.91 68.4962 207.91 66.233C207.91 63.9981 208.327 62.0284 209.16 60.3239C210.003 58.6193 211.177 57.2888 212.683 56.3324C214.198 55.3759 215.969 54.8977 217.995 54.8977C219.226 54.8977 220.42 55.1013 221.575 55.5085C222.73 55.9157 223.767 56.5549 224.686 57.4261C225.604 58.2973 226.329 59.429 226.859 60.821C227.389 62.2036 227.654 63.8845 227.654 65.8636V67.3693H210.311V64.1875H223.493C223.493 63.0701 223.265 62.0805 222.811 61.2188C222.356 60.3475 221.717 59.661 220.893 59.1591C220.079 58.6572 219.122 58.4062 218.024 58.4062C216.831 58.4062 215.789 58.6998 214.899 59.2869C214.018 59.8646 213.336 60.6222 212.853 61.5597C212.38 62.4877 212.143 63.4962 212.143 64.5852V67.071C212.143 68.5294 212.399 69.7699 212.91 70.7926C213.431 71.8153 214.155 72.5966 215.083 73.1364C216.011 73.6667 217.096 73.9318 218.336 73.9318C219.141 73.9318 219.875 73.8182 220.538 73.5909C221.201 73.3542 221.774 73.0038 222.257 72.5398C222.74 72.0758 223.109 71.5028 223.365 70.821L227.385 71.5455C227.063 72.7292 226.485 73.7661 225.652 74.6562C224.828 75.5369 223.791 76.2235 222.541 76.7159C221.3 77.1989 219.885 77.4403 218.294 77.4403ZM248.716 60.5085L244.867 61.1903C244.706 60.6979 244.45 60.2292 244.1 59.7841C243.759 59.339 243.295 58.9744 242.708 58.6903C242.121 58.4062 241.387 58.2642 240.506 58.2642C239.303 58.2642 238.3 58.5341 237.495 59.0739C236.69 59.6042 236.287 60.2907 236.287 61.1335C236.287 61.8627 236.557 62.4498 237.097 62.8949C237.637 63.34 238.508 63.7045 239.711 63.9886L243.176 64.7841C245.184 65.2481 246.68 65.9631 247.665 66.929C248.65 67.8949 249.142 69.1496 249.142 70.6932C249.142 72 248.764 73.1648 248.006 74.1875C247.258 75.2008 246.212 75.9962 244.867 76.5739C243.532 77.1515 241.983 77.4403 240.222 77.4403C237.779 77.4403 235.785 76.9195 234.242 75.8778C232.698 74.8267 231.751 73.3352 231.401 71.4034L235.506 70.7784C235.762 71.8485 236.287 72.6581 237.083 73.2074C237.878 73.7472 238.915 74.017 240.194 74.017C241.586 74.017 242.698 73.7282 243.532 73.1506C244.365 72.5634 244.782 71.8485 244.782 71.0057C244.782 70.3239 244.526 69.7509 244.015 69.2869C243.513 68.8229 242.741 68.4725 241.699 68.2358L238.006 67.4261C235.97 66.9621 234.464 66.2235 233.489 65.2102C232.523 64.197 232.04 62.9138 232.04 61.3608C232.04 60.0729 232.4 58.946 233.12 57.9801C233.839 57.0142 234.834 56.2614 236.103 55.7216C237.372 55.1723 238.825 54.8977 240.463 54.8977C242.821 54.8977 244.677 55.4091 246.032 56.4318C247.386 57.4451 248.281 58.804 248.716 60.5085ZM270.162 60.5085L266.312 61.1903C266.151 60.6979 265.895 60.2292 265.545 59.7841C265.204 59.339 264.74 58.9744 264.153 58.6903C263.566 58.4062 262.832 58.2642 261.951 58.2642C260.749 58.2642 259.745 58.5341 258.94 59.0739C258.135 59.6042 257.733 60.2907 257.733 61.1335C257.733 61.8627 258.002 62.4498 258.542 62.8949C259.082 63.34 259.953 63.7045 261.156 63.9886L264.622 64.7841C266.629 65.2481 268.126 65.9631 269.11 66.929C270.095 67.8949 270.588 69.1496 270.588 70.6932C270.588 72 270.209 73.1648 269.451 74.1875C268.703 75.2008 267.657 75.9962 266.312 76.5739C264.977 77.1515 263.429 77.4403 261.667 77.4403C259.224 77.4403 257.231 76.9195 255.687 75.8778C254.144 74.8267 253.197 73.3352 252.846 71.4034L256.951 70.7784C257.207 71.8485 257.733 72.6581 258.528 73.2074C259.324 73.7472 260.36 74.017 261.639 74.017C263.031 74.017 264.144 73.7282 264.977 73.1506C265.81 72.5634 266.227 71.8485 266.227 71.0057C266.227 70.3239 265.971 69.7509 265.46 69.2869C264.958 68.8229 264.186 68.4725 263.145 68.2358L259.451 67.4261C257.415 66.9621 255.91 66.2235 254.934 65.2102C253.968 64.197 253.485 62.9138 253.485 61.3608C253.485 60.0729 253.845 58.946 254.565 57.9801C255.285 57.0142 256.279 56.2614 257.548 55.7216C258.817 55.1723 260.27 54.8977 261.909 54.8977C264.267 54.8977 266.123 55.4091 267.477 56.4318C268.831 57.4451 269.726 58.804 270.162 60.5085ZM286.184 47.9091H291.511L300.772 70.5227H301.113L310.375 47.9091H315.701V77H311.525V55.9489H311.255L302.676 76.9574H299.21L290.63 55.9347H290.36V77H286.184V47.9091ZM331.145 77.4403C328.996 77.4403 327.144 76.9811 325.591 76.0625C324.048 75.1345 322.855 73.8324 322.012 72.1562C321.178 70.4706 320.762 68.4962 320.762 66.233C320.762 63.9981 321.178 62.0284 322.012 60.3239C322.855 58.6193 324.029 57.2888 325.534 56.3324C327.05 55.3759 328.82 54.8977 330.847 54.8977C332.078 54.8977 333.271 55.1013 334.426 55.5085C335.582 55.9157 336.619 56.5549 337.537 57.4261C338.456 58.2973 339.18 59.429 339.711 60.821C340.241 62.2036 340.506 63.8845 340.506 65.8636V67.3693H323.162V64.1875H336.344C336.344 63.0701 336.117 62.0805 335.662 61.2188C335.208 60.3475 334.569 59.661 333.745 59.1591C332.93 58.6572 331.974 58.4062 330.875 58.4062C329.682 58.4062 328.641 58.6998 327.75 59.2869C326.87 59.8646 326.188 60.6222 325.705 61.5597C325.231 62.4877 324.995 63.4962 324.995 64.5852V67.071C324.995 68.5294 325.25 69.7699 325.762 70.7926C326.283 71.8153 327.007 72.5966 327.935 73.1364C328.863 73.6667 329.947 73.9318 331.188 73.9318C331.993 73.9318 332.727 73.8182 333.39 73.5909C334.052 73.3542 334.625 73.0038 335.108 72.5398C335.591 72.0758 335.961 71.5028 336.216 70.821L340.236 71.5455C339.914 72.7292 339.337 73.7661 338.503 74.6562C337.679 75.5369 336.642 76.2235 335.392 76.7159C334.152 77.1989 332.736 77.4403 331.145 77.4403ZM350.574 47.9091L350.204 68.6335H346.27L345.9 47.9091H350.574ZM348.244 77.2699C347.458 77.2699 346.786 76.9953 346.227 76.446C345.668 75.8873 345.394 75.215 345.403 74.429C345.394 73.6525 345.668 72.9896 346.227 72.4403C346.786 71.8816 347.458 71.6023 348.244 71.6023C349.011 71.6023 349.674 71.8816 350.233 72.4403C350.791 72.9896 351.075 73.6525 351.085 74.429C351.075 74.9498 350.938 75.428 350.673 75.8636C350.417 76.2898 350.076 76.6307 349.65 76.8864C349.224 77.142 348.755 77.2699 348.244 77.2699Z"
    fill="white" />
  <g filter="url(#filter7_dddi_0_1)">
    <rect x="4" y="486" width="512" height="120" rx="39" fill="#05B4FF" />
    <rect x="4.5" y="486.5" width="511" height="119" rx="38.5" stroke="url(#paint7_linear_0_1)" stroke-opacity="0.26" />
  </g>
  <path
    d="M169.075 561V531.909H179.444C181.708 531.909 183.583 532.321 185.069 533.145C186.556 533.969 187.669 535.096 188.407 536.526C189.146 537.946 189.515 539.546 189.515 541.327C189.515 543.116 189.141 544.726 188.393 546.156C187.654 547.577 186.537 548.704 185.041 549.537C183.554 550.361 181.684 550.773 179.43 550.773H172.299V547.051H179.032C180.462 547.051 181.622 546.805 182.512 546.312C183.403 545.811 184.056 545.129 184.473 544.267C184.889 543.405 185.098 542.425 185.098 541.327C185.098 540.228 184.889 539.253 184.473 538.401C184.056 537.548 183.398 536.881 182.498 536.398C181.608 535.915 180.434 535.673 178.975 535.673H173.464V561H169.075ZM194.32 561V539.182H198.425V542.648H198.652C199.05 541.473 199.751 540.55 200.755 539.878C201.768 539.196 202.914 538.855 204.192 538.855C204.457 538.855 204.77 538.865 205.13 538.884C205.499 538.902 205.788 538.926 205.996 538.955V543.017C205.826 542.97 205.523 542.918 205.087 542.861C204.651 542.795 204.216 542.761 203.78 542.761C202.776 542.761 201.882 542.974 201.096 543.401C200.319 543.817 199.703 544.4 199.249 545.148C198.794 545.886 198.567 546.729 198.567 547.676V561H194.32ZM218.294 561.44C216.144 561.44 214.293 560.981 212.74 560.062C211.196 559.134 210.003 557.832 209.16 556.156C208.327 554.471 207.91 552.496 207.91 550.233C207.91 547.998 208.327 546.028 209.16 544.324C210.003 542.619 211.177 541.289 212.683 540.332C214.198 539.376 215.969 538.898 217.995 538.898C219.226 538.898 220.42 539.101 221.575 539.509C222.73 539.916 223.767 540.555 224.686 541.426C225.604 542.297 226.329 543.429 226.859 544.821C227.389 546.204 227.654 547.884 227.654 549.864V551.369H210.311V548.188H223.493C223.493 547.07 223.265 546.08 222.811 545.219C222.356 544.348 221.717 543.661 220.893 543.159C220.079 542.657 219.122 542.406 218.024 542.406C216.831 542.406 215.789 542.7 214.899 543.287C214.018 543.865 213.336 544.622 212.853 545.56C212.38 546.488 212.143 547.496 212.143 548.585V551.071C212.143 552.529 212.399 553.77 212.91 554.793C213.431 555.815 214.155 556.597 215.083 557.136C216.011 557.667 217.096 557.932 218.336 557.932C219.141 557.932 219.875 557.818 220.538 557.591C221.201 557.354 221.774 557.004 222.257 556.54C222.74 556.076 223.109 555.503 223.365 554.821L227.385 555.545C227.063 556.729 226.485 557.766 225.652 558.656C224.828 559.537 223.791 560.223 222.541 560.716C221.3 561.199 219.885 561.44 218.294 561.44ZM248.716 544.509L244.867 545.19C244.706 544.698 244.45 544.229 244.1 543.784C243.759 543.339 243.295 542.974 242.708 542.69C242.121 542.406 241.387 542.264 240.506 542.264C239.303 542.264 238.3 542.534 237.495 543.074C236.69 543.604 236.287 544.291 236.287 545.134C236.287 545.863 236.557 546.45 237.097 546.895C237.637 547.34 238.508 547.705 239.711 547.989L243.176 548.784C245.184 549.248 246.68 549.963 247.665 550.929C248.65 551.895 249.142 553.15 249.142 554.693C249.142 556 248.764 557.165 248.006 558.188C247.258 559.201 246.212 559.996 244.867 560.574C243.532 561.152 241.983 561.44 240.222 561.44C237.779 561.44 235.785 560.92 234.242 559.878C232.698 558.827 231.751 557.335 231.401 555.403L235.506 554.778C235.762 555.848 236.287 556.658 237.083 557.207C237.878 557.747 238.915 558.017 240.194 558.017C241.586 558.017 242.698 557.728 243.532 557.151C244.365 556.563 244.782 555.848 244.782 555.006C244.782 554.324 244.526 553.751 244.015 553.287C243.513 552.823 242.741 552.473 241.699 552.236L238.006 551.426C235.97 550.962 234.464 550.223 233.489 549.21C232.523 548.197 232.04 546.914 232.04 545.361C232.04 544.073 232.4 542.946 233.12 541.98C233.839 541.014 234.834 540.261 236.103 539.722C237.372 539.172 238.825 538.898 240.463 538.898C242.821 538.898 244.677 539.409 246.032 540.432C247.386 541.445 248.281 542.804 248.716 544.509ZM270.162 544.509L266.312 545.19C266.151 544.698 265.895 544.229 265.545 543.784C265.204 543.339 264.74 542.974 264.153 542.69C263.566 542.406 262.832 542.264 261.951 542.264C260.749 542.264 259.745 542.534 258.94 543.074C258.135 543.604 257.733 544.291 257.733 545.134C257.733 545.863 258.002 546.45 258.542 546.895C259.082 547.34 259.953 547.705 261.156 547.989L264.622 548.784C266.629 549.248 268.126 549.963 269.11 550.929C270.095 551.895 270.588 553.15 270.588 554.693C270.588 556 270.209 557.165 269.451 558.188C268.703 559.201 267.657 559.996 266.312 560.574C264.977 561.152 263.429 561.44 261.667 561.44C259.224 561.44 257.231 560.92 255.687 559.878C254.144 558.827 253.197 557.335 252.846 555.403L256.951 554.778C257.207 555.848 257.733 556.658 258.528 557.207C259.324 557.747 260.36 558.017 261.639 558.017C263.031 558.017 264.144 557.728 264.977 557.151C265.81 556.563 266.227 555.848 266.227 555.006C266.227 554.324 265.971 553.751 265.46 553.287C264.958 552.823 264.186 552.473 263.145 552.236L259.451 551.426C257.415 550.962 255.91 550.223 254.934 549.21C253.968 548.197 253.485 546.914 253.485 545.361C253.485 544.073 253.845 542.946 254.565 541.98C255.285 541.014 256.279 540.261 257.548 539.722C258.817 539.172 260.27 538.898 261.909 538.898C264.267 538.898 266.123 539.409 267.477 540.432C268.831 541.445 269.726 542.804 270.162 544.509ZM286.184 531.909H291.511L300.772 554.523H301.113L310.375 531.909H315.701V561H311.525V539.949H311.255L302.676 560.957H299.21L290.63 539.935H290.36V561H286.184V531.909ZM331.145 561.44C328.996 561.44 327.144 560.981 325.591 560.062C324.048 559.134 322.855 557.832 322.012 556.156C321.178 554.471 320.762 552.496 320.762 550.233C320.762 547.998 321.178 546.028 322.012 544.324C322.855 542.619 324.029 541.289 325.534 540.332C327.05 539.376 328.82 538.898 330.847 538.898C332.078 538.898 333.271 539.101 334.426 539.509C335.582 539.916 336.619 540.555 337.537 541.426C338.456 542.297 339.18 543.429 339.711 544.821C340.241 546.204 340.506 547.884 340.506 549.864V551.369H323.162V548.188H336.344C336.344 547.07 336.117 546.08 335.662 545.219C335.208 544.348 334.569 543.661 333.745 543.159C332.93 542.657 331.974 542.406 330.875 542.406C329.682 542.406 328.641 542.7 327.75 543.287C326.87 543.865 326.188 544.622 325.705 545.56C325.231 546.488 324.995 547.496 324.995 548.585V551.071C324.995 552.529 325.25 553.77 325.762 554.793C326.283 555.815 327.007 556.597 327.935 557.136C328.863 557.667 329.947 557.932 331.188 557.932C331.993 557.932 332.727 557.818 333.39 557.591C334.052 557.354 334.625 557.004 335.108 556.54C335.591 556.076 335.961 555.503 336.216 554.821L340.236 555.545C339.914 556.729 339.337 557.766 338.503 558.656C337.679 559.537 336.642 560.223 335.392 560.716C334.152 561.199 332.736 561.44 331.145 561.44ZM350.574 531.909L350.204 552.634H346.27L345.9 531.909H350.574ZM348.244 561.27C347.458 561.27 346.786 560.995 346.227 560.446C345.668 559.887 345.394 559.215 345.403 558.429C345.394 557.652 345.668 556.99 346.227 556.44C346.786 555.882 347.458 555.602 348.244 555.602C349.011 555.602 349.674 555.882 350.233 556.44C350.791 556.99 351.075 557.652 351.085 558.429C351.075 558.95 350.938 559.428 350.673 559.864C350.417 560.29 350.076 560.631 349.65 560.886C349.224 561.142 348.755 561.27 348.244 561.27Z"
    fill="white" />
  <defs>
    <filter id="filter0_dddi_0_1" x="1104" y="163" width="520" height="128" filterUnits="userSpaceOnUse"
      color-interpolation-filters="sRGB">
      <feFlood flood-opacity="0" result="BackgroundImageFix" />
      <feColorMatrix in="SourceAlpha" type="matrix" values="0 0 0 0 0 0 0 0 0 0 0 0 0 0 0 0 0 0 127 0"
        result="hardAlpha" />
      <feMorphology radius="1" operator="dilate" in="SourceAlpha" result="effect1_dropShadow_0_1" />
      <feOffset />
      <feComposite in2="hardAlpha" operator="out" />
      <feColorMatrix type="matrix" values="0 0 0 0 0.193604 0 0 0 0 0.193604 0 0 0 0 0.193604 0 0 0 1 0" />
      <feBlend mode="normal" in2="BackgroundImageFix" result="effect1_dropShadow_0_1" />
      <feColorMatrix in="SourceAlpha" type="matrix" values="0 0 0 0 0 0 0 0 0 0 0 0 0 0 0 0 0 0 127 0"
        result="hardAlpha" />
      <feOffset dy="1" />
      <feGaussianBlur stdDeviation="1" />
      <feComposite in2="hardAlpha" operator="out" />
      <feColorMatrix type="matrix" values="0 0 0 0 0.0352941 0 0 0 0 0.0352941 0 0 0 0 0.0431373 0 0 0 0.08 0" />
      <feBlend mode="normal" in2="effect1_dropShadow_0_1" result="effect2_dropShadow_0_1" />
      <feColorMatrix in="SourceAlpha" type="matrix" values="0 0 0 0 0 0 0 0 0 0 0 0 0 0 0 0 0 0 127 0"
        result="hardAlpha" />
      <feOffset dy="2" />
      <feGaussianBlur stdDeviation="2" />
      <feComposite in2="hardAlpha" operator="out" />
      <feColorMatrix type="matrix" values="0 0 0 0 0.0352941 0 0 0 0 0.0352941 0 0 0 0 0.0431373 0 0 0 0.16 0" />
      <feBlend mode="normal" in2="effect2_dropShadow_0_1" result="effect3_dropShadow_0_1" />
      <feBlend mode="normal" in="SourceGraphic" in2="effect3_dropShadow_0_1" result="shape" />
      <feColorMatrix in="SourceAlpha" type="matrix" values="0 0 0 0 0 0 0 0 0 0 0 0 0 0 0 0 0 0 127 0"
        result="hardAlpha" />
      <feOffset dy="1" />
      <feGaussianBlur stdDeviation="10" />
      <feComposite in2="hardAlpha" operator="arithmetic" k2="-1" k3="1" />
      <feColorMatrix type="matrix" values="0 0 0 0 1 0 0 0 0 1 0 0 0 0 1 0 0 0 0.16 0" />
      <feBlend mode="normal" in2="shape" result="effect4_innerShadow_0_1" />
    </filter>
    <filter id="filter1_dddi_0_1" x="1104" y="0" width="520" height="128" filterUnits="userSpaceOnUse"
      color-interpolation-filters="sRGB">
      <feFlood flood-opacity="0" result="BackgroundImageFix" />
      <feColorMatrix in="SourceAlpha" type="matrix" values="0 0 0 0 0 0 0 0 0 0 0 0 0 0 0 0 0 0 127 0"
        result="hardAlpha" />
      <feMorphology radius="1" operator="dilate" in="SourceAlpha" result="effect1_dropShadow_0_1" />
      <feOffset />
      <feComposite in2="hardAlpha" operator="out" />
      <feColorMatrix type="matrix" values="0 0 0 0 0.545866 0 0 0 0 0.459062 0 0 0 0 0.943716 0 0 0 1 0" />
      <feBlend mode="normal" in2="BackgroundImageFix" result="effect1_dropShadow_0_1" />
      <feColorMatrix in="SourceAlpha" type="matrix" values="0 0 0 0 0 0 0 0 0 0 0 0 0 0 0 0 0 0 127 0"
        result="hardAlpha" />
      <feOffset dy="1" />
      <feGaussianBlur stdDeviation="1" />
      <feComposite in2="hardAlpha" operator="out" />
      <feColorMatrix type="matrix" values="0 0 0 0 0.0352941 0 0 0 0 0.0352941 0 0 0 0 0.0431373 0 0 0 0.08 0" />
      <feBlend mode="normal" in2="effect1_dropShadow_0_1" result="effect2_dropShadow_0_1" />
      <feColorMatrix in="SourceAlpha" type="matrix" values="0 0 0 0 0 0 0 0 0 0 0 0 0 0 0 0 0 0 127 0"
        result="hardAlpha" />
      <feOffset dy="2" />
      <feGaussianBlur stdDeviation="2" />
      <feComposite in2="hardAlpha" operator="out" />
      <feColorMatrix type="matrix" values="0 0 0 0 0.0352941 0 0 0 0 0.0352941 0 0 0 0 0.0431373 0 0 0 0.16 0" />
      <feBlend mode="normal" in2="effect2_dropShadow_0_1" result="effect3_dropShadow_0_1" />
      <feBlend mode="normal" in="SourceGraphic" in2="effect3_dropShadow_0_1" result="shape" />
      <feColorMatrix in="SourceAlpha" type="matrix" values="0 0 0 0 0 0 0 0 0 0 0 0 0 0 0 0 0 0 127 0"
        result="hardAlpha" />
      <feOffset dy="1" />
      <feGaussianBlur stdDeviation="10" />
      <feComposite in2="hardAlpha" operator="arithmetic" k2="-1" k3="1" />
      <feColorMatrix type="matrix" values="0 0 0 0 1 0 0 0 0 1 0 0 0 0 1 0 0 0 0.16 0" />
      <feBlend mode="normal" in2="shape" result="effect4_innerShadow_0_1" />
    </filter>
    <filter id="filter2_dddi_0_1" x="542" y="163" width="520" height="128" filterUnits="userSpaceOnUse"
      color-interpolation-filters="sRGB">
      <feFlood flood-opacity="0" result="BackgroundImageFix" />
      <feColorMatrix in="SourceAlpha" type="matrix" values="0 0 0 0 0 0 0 0 0 0 0 0 0 0 0 0 0 0 127 0"
        result="hardAlpha" />
      <feMorphology radius="1" operator="dilate" in="SourceAlpha" result="effect1_dropShadow_0_1" />
      <feOffset />
      <feComposite in2="hardAlpha" operator="out" />
      <feColorMatrix type="matrix" values="0 0 0 0 0 0 0 0 0 0.825421 0 0 0 0 0.282526 0 0 0 1 0" />
      <feBlend mode="normal" in2="BackgroundImageFix" result="effect1_dropShadow_0_1" />
      <feColorMatrix in="SourceAlpha" type="matrix" values="0 0 0 0 0 0 0 0 0 0 0 0 0 0 0 0 0 0 127 0"
        result="hardAlpha" />
      <feOffset dy="1" />
      <feGaussianBlur stdDeviation="1" />
      <feComposite in2="hardAlpha" operator="out" />
      <feColorMatrix type="matrix" values="0 0 0 0 0.0352941 0 0 0 0 0.0352941 0 0 0 0 0.0431373 0 0 0 0.08 0" />
      <feBlend mode="normal" in2="effect1_dropShadow_0_1" result="effect2_dropShadow_0_1" />
      <feColorMatrix in="SourceAlpha" type="matrix" values="0 0 0 0 0 0 0 0 0 0 0 0 0 0 0 0 0 0 127 0"
        result="hardAlpha" />
      <feOffset dy="2" />
      <feGaussianBlur stdDeviation="2" />
      <feComposite in2="hardAlpha" operator="out" />
      <feColorMatrix type="matrix" values="0 0 0 0 0.0352941 0 0 0 0 0.0352941 0 0 0 0 0.0431373 0 0 0 0.16 0" />
      <feBlend mode="normal" in2="effect2_dropShadow_0_1" result="effect3_dropShadow_0_1" />
      <feBlend mode="normal" in="SourceGraphic" in2="effect3_dropShadow_0_1" result="shape" />
      <feColorMatrix in="SourceAlpha" type="matrix" values="0 0 0 0 0 0 0 0 0 0 0 0 0 0 0 0 0 0 127 0"
        result="hardAlpha" />
      <feOffset dy="1" />
      <feGaussianBlur stdDeviation="10" />
      <feComposite in2="hardAlpha" operator="arithmetic" k2="-1" k3="1" />
      <feColorMatrix type="matrix" values="0 0 0 0 1 0 0 0 0 1 0 0 0 0 1 0 0 0 0.16 0" />
      <feBlend mode="normal" in2="shape" result="effect4_innerShadow_0_1" />
    </filter>
    <filter id="filter3_dddi_0_1" x="542" y="0" width="520" height="128" filterUnits="userSpaceOnUse"
      color-interpolation-filters="sRGB">
      <feFlood flood-opacity="0" result="BackgroundImageFix" />
      <feColorMatrix in="SourceAlpha" type="matrix" values="0 0 0 0 0 0 0 0 0 0 0 0 0 0 0 0 0 0 127 0"
        result="hardAlpha" />
      <feMorphology radius="1" operator="dilate" in="SourceAlpha" result="effect1_dropShadow_0_1" />
      <feOffset />
      <feComposite in2="hardAlpha" operator="out" />
      <feColorMatrix type="matrix" values="0 0 0 0 0.976938 0 0 0 0 0.655551 0 0 0 0 0.301202 0 0 0 1 0" />
      <feBlend mode="normal" in2="BackgroundImageFix" result="effect1_dropShadow_0_1" />
      <feColorMatrix in="SourceAlpha" type="matrix" values="0 0 0 0 0 0 0 0 0 0 0 0 0 0 0 0 0 0 127 0"
        result="hardAlpha" />
      <feOffset dy="1" />
      <feGaussianBlur stdDeviation="1" />
      <feComposite in2="hardAlpha" operator="out" />
      <feColorMatrix type="matrix" values="0 0 0 0 0.0352941 0 0 0 0 0.0352941 0 0 0 0 0.0431373 0 0 0 0.08 0" />
      <feBlend mode="normal" in2="effect1_dropShadow_0_1" result="effect2_dropShadow_0_1" />
      <feColorMatrix in="SourceAlpha" type="matrix" values="0 0 0 0 0 0 0 0 0 0 0 0 0 0 0 0 0 0 127 0"
        result="hardAlpha" />
      <feOffset dy="2" />
      <feGaussianBlur stdDeviation="2" />
      <feComposite in2="hardAlpha" operator="out" />
      <feColorMatrix type="matrix" values="0 0 0 0 0.0352941 0 0 0 0 0.0352941 0 0 0 0 0.0431373 0 0 0 0.16 0" />
      <feBlend mode="normal" in2="effect2_dropShadow_0_1" result="effect3_dropShadow_0_1" />
      <feBlend mode="normal" in="SourceGraphic" in2="effect3_dropShadow_0_1" result="shape" />
      <feColorMatrix in="SourceAlpha" type="matrix" values="0 0 0 0 0 0 0 0 0 0 0 0 0 0 0 0 0 0 127 0"
        result="hardAlpha" />
      <feOffset dy="1" />
      <feGaussianBlur stdDeviation="10" />
      <feComposite in2="hardAlpha" operator="arithmetic" k2="-1" k3="1" />
      <feColorMatrix type="matrix" values="0 0 0 0 1 0 0 0 0 1 0 0 0 0 1 0 0 0 0.16 0" />
      <feBlend mode="normal" in2="shape" result="effect4_innerShadow_0_1" />
    </filter>
    <filter id="filter4_dddi_0_1" x="0" y="163" width="520" height="128" filterUnits="userSpaceOnUse"
      color-interpolation-filters="sRGB">
      <feFlood flood-opacity="0" result="BackgroundImageFix" />
      <feColorMatrix in="SourceAlpha" type="matrix" values="0 0 0 0 0 0 0 0 0 0 0 0 0 0 0 0 0 0 127 0"
        result="hardAlpha" />
      <feMorphology radius="1" operator="dilate" in="SourceAlpha" result="effect1_dropShadow_0_1" />
      <feOffset />
      <feComposite in2="hardAlpha" operator="out" />
      <feColorMatrix type="matrix" values="0 0 0 0 1 0 0 0 0 0.0712703 0 0 0 0 0.076968 0 0 0 1 0" />
      <feBlend mode="normal" in2="BackgroundImageFix" result="effect1_dropShadow_0_1" />
      <feColorMatrix in="SourceAlpha" type="matrix" values="0 0 0 0 0 0 0 0 0 0 0 0 0 0 0 0 0 0 127 0"
        result="hardAlpha" />
      <feOffset dy="1" />
      <feGaussianBlur stdDeviation="1" />
      <feComposite in2="hardAlpha" operator="out" />
      <feColorMatrix type="matrix" values="0 0 0 0 0.0352941 0 0 0 0 0.0352941 0 0 0 0 0.0431373 0 0 0 0.08 0" />
      <feBlend mode="normal" in2="effect1_dropShadow_0_1" result="effect2_dropShadow_0_1" />
      <feColorMatrix in="SourceAlpha" type="matrix" values="0 0 0 0 0 0 0 0 0 0 0 0 0 0 0 0 0 0 127 0"
        result="hardAlpha" />
      <feOffset dy="2" />
      <feGaussianBlur stdDeviation="2" />
      <feComposite in2="hardAlpha" operator="out" />
      <feColorMatrix type="matrix" values="0 0 0 0 0.0352941 0 0 0 0 0.0352941 0 0 0 0 0.0431373 0 0 0 0.16 0" />
      <feBlend mode="normal" in2="effect2_dropShadow_0_1" result="effect3_dropShadow_0_1" />
      <feBlend mode="normal" in="SourceGraphic" in2="effect3_dropShadow_0_1" result="shape" />
      <feColorMatrix in="SourceAlpha" type="matrix" values="0 0 0 0 0 0 0 0 0 0 0 0 0 0 0 0 0 0 127 0"
        result="hardAlpha" />
      <feOffset dy="1" />
      <feGaussianBlur stdDeviation="10" />
      <feComposite in2="hardAlpha" operator="arithmetic" k2="-1" k3="1" />
      <feColorMatrix type="matrix" values="0 0 0 0 1 0 0 0 0 1 0 0 0 0 1 0 0 0 0.16 0" />
      <feBlend mode="normal" in2="shape" result="effect4_innerShadow_0_1" />
    </filter>
    <filter id="filter5_dddi_0_1" x="559" y="483" width="520" height="129" filterUnits="userSpaceOnUse"
      color-interpolation-filters="sRGB">
      <feFlood flood-opacity="0" result="BackgroundImageFix" />
      <feColorMatrix in="SourceAlpha" type="matrix" values="0 0 0 0 0 0 0 0 0 0 0 0 0 0 0 0 0 0 127 0"
        result="hardAlpha" />
      <feMorphology radius="3" operator="dilate" in="SourceAlpha" result="effect1_dropShadow_0_1" />
      <feOffset />
      <feComposite in2="hardAlpha" operator="out" />
      <feColorMatrix type="matrix" values="0 0 0 0 0.921569 0 0 0 0 0.380392 0 0 0 0 0 0 0 0 1 0" />
      <feBlend mode="normal" in2="BackgroundImageFix" result="effect1_dropShadow_0_1" />
      <feColorMatrix in="SourceAlpha" type="matrix" values="0 0 0 0 0 0 0 0 0 0 0 0 0 0 0 0 0 0 127 0"
        result="hardAlpha" />
      <feOffset dy="1" />
      <feGaussianBlur stdDeviation="1" />
      <feComposite in2="hardAlpha" operator="out" />
      <feColorMatrix type="matrix" values="0 0 0 0 0.0352941 0 0 0 0 0.0352941 0 0 0 0 0.0431373 0 0 0 0.08 0" />
      <feBlend mode="normal" in2="effect1_dropShadow_0_1" result="effect2_dropShadow_0_1" />
      <feColorMatrix in="SourceAlpha" type="matrix" values="0 0 0 0 0 0 0 0 0 0 0 0 0 0 0 0 0 0 127 0"
        result="hardAlpha" />
      <feOffset dy="2" />
      <feGaussianBlur stdDeviation="2" />
      <feComposite in2="hardAlpha" operator="out" />
      <feColorMatrix type="matrix" values="0 0 0 0 0.0352941 0 0 0 0 0.0352941 0 0 0 0 0.0431373 0 0 0 0.16 0" />
      <feBlend mode="normal" in2="effect2_dropShadow_0_1" result="effect3_dropShadow_0_1" />
      <feBlend mode="normal" in="SourceGraphic" in2="effect3_dropShadow_0_1" result="shape" />
      <feColorMatrix in="SourceAlpha" type="matrix" values="0 0 0 0 0 0 0 0 0 0 0 0 0 0 0 0 0 0 127 0"
        result="hardAlpha" />
      <feOffset dy="1" />
      <feGaussianBlur stdDeviation="10" />
      <feComposite in2="hardAlpha" operator="arithmetic" k2="-1" k3="1" />
      <feColorMatrix type="matrix" values="0 0 0 0 1 0 0 0 0 1 0 0 0 0 1 0 0 0 0.16 0" />
      <feBlend mode="normal" in2="shape" result="effect4_innerShadow_0_1" />
    </filter>
    <filter id="filter6_dddi_0_1" x="0" y="0" width="520" height="128" filterUnits="userSpaceOnUse"
      color-interpolation-filters="sRGB">
      <feFlood flood-opacity="0" result="BackgroundImageFix" />
      <feColorMatrix in="SourceAlpha" type="matrix" values="0 0 0 0 0 0 0 0 0 0 0 0 0 0 0 0 0 0 127 0"
        result="hardAlpha" />
      <feMorphology radius="1" operator="dilate" in="SourceAlpha" result="effect1_dropShadow_0_1" />
      <feOffset />
      <feComposite in2="hardAlpha" operator="out" />
      <feColorMatrix type="matrix" values="0 0 0 0 0.254699 0 0 0 0 0.756414 0 0 0 0 0.971436 0 0 0 1 0" />
      <feBlend mode="normal" in2="BackgroundImageFix" result="effect1_dropShadow_0_1" />
      <feColorMatrix in="SourceAlpha" type="matrix" values="0 0 0 0 0 0 0 0 0 0 0 0 0 0 0 0 0 0 127 0"
        result="hardAlpha" />
      <feOffset dy="1" />
      <feGaussianBlur stdDeviation="1" />
      <feComposite in2="hardAlpha" operator="out" />
      <feColorMatrix type="matrix" values="0 0 0 0 0.0352941 0 0 0 0 0.0352941 0 0 0 0 0.0431373 0 0 0 0.08 0" />
      <feBlend mode="normal" in2="effect1_dropShadow_0_1" result="effect2_dropShadow_0_1" />
      <feColorMatrix in="SourceAlpha" type="matrix" values="0 0 0 0 0 0 0 0 0 0 0 0 0 0 0 0 0 0 127 0"
        result="hardAlpha" />
      <feOffset dy="2" />
      <feGaussianBlur stdDeviation="2" />
      <feComposite in2="hardAlpha" operator="out" />
      <feColorMatrix type="matrix" values="0 0 0 0 0.0352941 0 0 0 0 0.0352941 0 0 0 0 0.0431373 0 0 0 0.16 0" />
      <feBlend mode="normal" in2="effect2_dropShadow_0_1" result="effect3_dropShadow_0_1" />
      <feBlend mode="normal" in="SourceGraphic" in2="effect3_dropShadow_0_1" result="shape" />
      <feColorMatrix in="SourceAlpha" type="matrix" values="0 0 0 0 0 0 0 0 0 0 0 0 0 0 0 0 0 0 127 0"
        result="hardAlpha" />
      <feOffset dy="1" />
      <feGaussianBlur stdDeviation="10" />
      <feComposite in2="hardAlpha" operator="arithmetic" k2="-1" k3="1" />
      <feColorMatrix type="matrix" values="0 0 0 0 1 0 0 0 0 1 0 0 0 0 1 0 0 0 0.16 0" />
      <feBlend mode="normal" in2="shape" result="effect4_innerShadow_0_1" />
    </filter>
    <filter id="filter7_dddi_0_1" x="0" y="484" width="520" height="128" filterUnits="userSpaceOnUse"
      color-interpolation-filters="sRGB">
      <feFlood flood-opacity="0" result="BackgroundImageFix" />
      <feColorMatrix in="SourceAlpha" type="matrix" values="0 0 0 0 0 0 0 0 0 0 0 0 0 0 0 0 0 0 127 0"
        result="hardAlpha" />
      <feMorphology radius="2" operator="dilate" in="SourceAlpha" result="effect1_dropShadow_0_1" />
      <feOffset />
      <feComposite in2="hardAlpha" operator="out" />
      <feColorMatrix type="matrix" values="0 0 0 0 0.254699 0 0 0 0 0.756414 0 0 0 0 0.971436 0 0 0 1 0" />
      <feBlend mode="normal" in2="BackgroundImageFix" result="effect1_dropShadow_0_1" />
      <feColorMatrix in="SourceAlpha" type="matrix" values="0 0 0 0 0 0 0 0 0 0 0 0 0 0 0 0 0 0 127 0"
        result="hardAlpha" />
      <feOffset dy="1" />
      <feGaussianBlur stdDeviation="1" />
      <feComposite in2="hardAlpha" operator="out" />
      <feColorMatrix type="matrix" values="0 0 0 0 0.0352941 0 0 0 0 0.0352941 0 0 0 0 0.0431373 0 0 0 0.08 0" />
      <feBlend mode="normal" in2="effect1_dropShadow_0_1" result="effect2_dropShadow_0_1" />
      <feColorMatrix in="SourceAlpha" type="matrix" values="0 0 0 0 0 0 0 0 0 0 0 0 0 0 0 0 0 0 127 0"
        result="hardAlpha" />
      <feOffset dy="2" />
      <feGaussianBlur stdDeviation="2" />
      <feComposite in2="hardAlpha" operator="out" />
      <feColorMatrix type="matrix" values="0 0 0 0 0.0352941 0 0 0 0 0.0352941 0 0 0 0 0.0431373 0 0 0 0.16 0" />
      <feBlend mode="normal" in2="effect2_dropShadow_0_1" result="effect3_dropShadow_0_1" />
      <feBlend mode="normal" in="SourceGraphic" in2="effect3_dropShadow_0_1" result="shape" />
      <feColorMatrix in="SourceAlpha" type="matrix" values="0 0 0 0 0 0 0 0 0 0 0 0 0 0 0 0 0 0 127 0"
        result="hardAlpha" />
      <feOffset dy="1" />
      <feGaussianBlur stdDeviation="10.15" />
      <feComposite in2="hardAlpha" operator="arithmetic" k2="-1" k3="1" />
      <feColorMatrix type="matrix" values="0 0 0 0 1 0 0 0 0 1 0 0 0 0 1 0 0 0 0.16 0" />
      <feBlend mode="normal" in2="shape" result="effect4_innerShadow_0_1" />
    </filter>
    <linearGradient id="paint0_linear_0_1" x1="1364" y1="285" x2="1364" y2="165" gradientUnits="userSpaceOnUse">
      <stop offset="0.259615" stop-color="white" />
    </linearGradient>
    <linearGradient id="paint1_linear_0_1" x1="1364" y1="122" x2="1364" y2="2" gradientUnits="userSpaceOnUse">
      <stop offset="0.259615" stop-color="white" />
    </linearGradient>
    <linearGradient id="paint2_linear_0_1" x1="802" y1="285" x2="802" y2="165" gradientUnits="userSpaceOnUse">
      <stop offset="0.259615" stop-color="white" />
    </linearGradient>
    <linearGradient id="paint3_linear_0_1" x1="802" y1="122" x2="802" y2="2" gradientUnits="userSpaceOnUse">
      <stop offset="0.259615" stop-color="white" />
    </linearGradient>
    <linearGradient id="paint4_linear_0_1" x1="260" y1="285" x2="260" y2="165" gradientUnits="userSpaceOnUse">
      <stop offset="0.259615" stop-color="white" />
    </linearGradient>
    <linearGradient id="paint5_linear_0_1" x1="819" y1="606" x2="819" y2="486" gradientUnits="userSpaceOnUse">
      <stop offset="0.259615" stop-color="white" />
    </linearGradient>
    <linearGradient id="paint6_linear_0_1" x1="260" y1="122" x2="260" y2="2" gradientUnits="userSpaceOnUse">
      <stop offset="0.259615" stop-color="white" />
    </linearGradient>
    <linearGradient id="paint7_linear_0_1" x1="260" y1="606" x2="260" y2="486" gradientUnits="userSpaceOnUse">
      <stop offset="0.259615" stop-color="white" />
    </linearGradient>
  </defs>
</svg>